<svg width="12" height="13" viewBox="0 0 12 13" fill="none" xmlns="http://www.w3.org/2000/svg">
<path fill-rule="evenodd" clip-rule="evenodd" d="M11.168 7.28782C11.5822 7.28782 11.918 6.95203 11.918 6.53782C11.918 6.1236 11.5822 5.78782 11.168 5.78782L6.78786 5.78782L6.78787 1.40771C6.78787 0.993501 6.45208 0.657715 6.03787 0.657715C5.62365 0.657715 5.28787 0.993501 5.28787 1.40771L5.28786 5.78782L0.907794 5.78782C0.49358 5.78782 0.157794 6.1236 0.157794 6.53782C0.157794 6.95203 0.49358 7.28782 0.907794 7.28782L5.28786 7.28782L5.28786 11.6679C5.28786 12.0821 5.62365 12.4179 6.03786 12.4179C6.45208 12.4179 6.78786 12.0821 6.78786 11.6679L6.78786 7.28782L11.168 7.28782Z" fill="#FCFCFC"/>
</svg>
